<svg xmlns="http://www.w3.org/2000/svg" viewBox="-60 -65 120 120" style="overflow: visible">
  <style>
  <!-- 
  circle {
    animation: float 2s ease-out forwards infinite,
    fade 2s ease-out forwards infinite;
  }
  circle:nth-of-type(1) {
    transform: translateY(-50px) translateX(-3px);
    opacity: 0.3;
  }
  circle:nth-of-type(2) {
    transform: translateY(-40px) translateX(2px);
    opacity: 0.5;
  }
  circle:nth-of-type(3) {
    transform: translateY(-30px) translateX(-1px);
    opacity: 0.7;
  }
  circle:nth-of-type(4) {
    transform: translateY(-20px) translateX(3px);
    opacity: 0.9;
  } -->
  </style>
  <rect x="-60" y="-65" width="100%" height="100%" fill="#333"/>
  <circle fill="#b3e5fc" cx="-3" cy="-50" r="3" opacity="0.3"/>
  <circle fill="#b3e5fc" cx="2" cy="-40" r="3"  opacity="0.5"/>
  <circle fill="#b3e5fc" cx="-1" cy="-30" r="3" opacity="0.7"/>
  <circle fill="#b3e5fc" cx="3" cy="-20" r="3" opacity="0.9"/>
  <path
    fill="#81d4fa"
    d="
      M 0.0 -15.0
      L -21.7 -2.5
      L -21.7 22.5
      L -0.0 35.0
      L 21.7 22.5
      L 21.7 -2.5
      z
    "
  />
  <path
    fill="#b3e5fc"
    d="
      M 0.0 -15.0
      L -21.7 -2.5
      L 0 10
      L 21.7 -2.5
      z
    "
  />
  <!-- <path
    fill="none"
    stroke="#000"
    stroke-width="10"
    stroke-linecap="round"
    stroke-linejoin="round"
    d="
      M -45 -53
      L -15 -53
      L -15 -19.2
      L -30.3 -7.5
      L -30.3 27.5
      L -0 45
      L 30.3 27.5
      L 30.3 -7.5
      L 15 -19.2
      L 15 -53
      L 45 -53
    "
  /> -->
  <path
    fill="none"
    stroke="#fff"
    stroke-width="8"
    stroke-linecap="round"
    stroke-linejoin="round"
    d="
      M -45 -53
      L -15 -53
      L -15 -19.2
      L -30.3 -7.5
      L -30.3 27.5
      L -0 45
      L 30.3 27.5
      L 30.3 -7.5
      L 15 -19.2
      L 15 -53
      L 45 -53
    "
  />
</svg>
